<svg id="Layer_1" data-name="Layer 1" xmlns="http://www.w3.org/2000/svg" viewBox="0 0 750 750"><defs><style>.cls-1{fill:#296aa6;}.cls-2{fill:#104f79;}</style></defs><title>BargainHandshakeIcon</title><path class="cls-1" d="M544.14,471.61l-128-134h-64l-51,46s-25,11-46-4,1-38,1-38,12-15,28-40,49-32,49-32c62-18,52-27,52-27-15-11-68,8-68,8s-28,10-61,22-51,1-51,1l-22-13-80,175s43,10,57,29,22,10,22,10c11-7,16-6,16-6s25-1,30,16,15,11,15,11c10-4,27,0,27,0s11,2,16,15,25,10,25,10,29,0,28,16,22,15,22,15,22,3,16,27,12,22,12,22,9-1,19-8-4-18-4-18-34-31-45-43,5-5,5-5l60,55s12,11,26-3-1-29-1-29-35-35-45-47,5-6,5-6l55,54s20,15,36-3,0-35,0-35-57-60-63-70,5-5,5-5l77,79s16,17,35,0S544.14,471.61,544.14,471.61Z" transform="translate(-2.64 -2.11)"/><path class="cls-1" d="M377.64,2.11c-207.11,0-375,167.89-375,375q0,13.74,1,27.25L67.56,433v0L92.26,444l86.1-192.49-73.12-32.71a315.23,315.23,0,0,1,531-21.64l63-13C633.67,75.08,514.18,2.11,377.64,2.11Z" transform="translate(-2.64 -2.11)"/><path class="cls-2" d="M218.65,546.76l9.59,10a23.4,23.4,0,0,0,33.08.66l16.75-16.08a23.29,23.29,0,0,0,.66-32.92h0a31.72,31.72,0,0,0-44.85-.9l-14.73,14.14A17.75,17.75,0,0,0,218.65,546.76Z" transform="translate(-2.64 -2.11)"/><path class="cls-2" d="M184,519.48a22.08,22.08,0,0,0,31.24,0l8.67-8.66a17.29,17.29,0,0,0,0-24.43L218,480.5a26,26,0,0,0-36.78,0l-5.79,5.79a17.43,17.43,0,0,0,0,24.64Z" transform="translate(-2.64 -2.11)"/><path class="cls-2" d="M329.78,532.38h0a27,27,0,0,0-38.16-.76L272.47,550a20.47,20.47,0,0,0-.58,28.94l2.83,2.94a28.29,28.29,0,0,0,40,.8L329,568.94A25.86,25.86,0,0,0,329.78,532.38Z" transform="translate(-2.64 -2.11)"/><path class="cls-2" d="M321.25,597.72a28.84,28.84,0,0,0,40.78,0l2.48-2.49a26.33,26.33,0,0,0,0-37.25A14.47,14.47,0,0,0,344,558L319.12,582.9a9,9,0,0,0,0,12.68Z" transform="translate(-2.64 -2.11)"/><path class="cls-2" d="M266.64,375.11c19,11,41-9,41-9l33-32a31.59,31.59,0,0,1,21-8h47s12,0,22,12,126,133,126,133,5,5,16-6,31-31,74-32l-38-179s-104,22-139,4-90,4-90,4l-54,21s-25,6-33,25-31,43-31,43S247.64,364.11,266.64,375.11Z" transform="translate(-2.64 -2.11)"/><path class="cls-2" d="M717.4,218.19l-14.31,2.95-.06-.29-88.71,18.29,42.59,206.52,29.57-6.1A314.75,314.75,0,0,1,377.64,692.11,315.4,315.4,0,0,1,87.37,499.7c-2.92-6.89-5.56-13.87-8-20.91L9.22,447.4c32.9,173.51,185.34,304.71,368.42,304.71,207.11,0,375-167.9,375-375A373.54,373.54,0,0,0,717.4,218.19Z" transform="translate(-2.64 -2.11)"/></svg>