<svg id="Layer_1" data-name="Layer 1" xmlns="http://www.w3.org/2000/svg" viewBox="0 0 3701.04 750"><defs><style>.cls-1{fill:#296aa6;}.cls-2{fill:#104f79;}</style></defs><title>BargainLogo</title><path class="cls-1" d="M545.5,472.5l-128-134h-64l-51,46s-25,11-46-4,1-38,1-38,12-15,28-40,49-32,49-32c62-18,52-27,52-27-15-11-68,8-68,8s-28,10-61,22-51,1-51,1l-22-13-80,175s43,10,57,29,22,10,22,10c11-7,16-6,16-6s25-1,30,16,15,11,15,11c10-4,27,0,27,0s11,2,16,15,25,10,25,10,29,0,28,16,22,15,22,15,22,3,16,27,12,22,12,22,9-1,19-8-4-18-4-18-34-31-45-43,5-5,5-5l60,55s12,11,26-3-1-29-1-29-35-35-45-47,5-6,5-6l55,54s20,15,36-3,0-35,0-35-57-60-63-70,5-5,5-5l77,79s16,17,35,0S545.5,472.5,545.5,472.5Z" transform="translate(-4 -3)"/><path class="cls-1" d="M379,3C171.89,3,4,170.89,4,378q0,13.75,1,27.25l63.94,28.6v0l24.71,11.05,86.1-192.48L106.6,219.69a315.23,315.23,0,0,1,531-21.65l63-13C635,76,515.54,3,379,3Z" transform="translate(-4 -3)"/><path class="cls-2" d="M220,547.66l9.59,10a23.4,23.4,0,0,0,33.08.66l16.74-16.08a23.28,23.28,0,0,0,.67-32.92h0a31.74,31.74,0,0,0-44.86-.9l-14.72,14.15A17.74,17.74,0,0,0,220,547.66Z" transform="translate(-4 -3)"/><path class="cls-2" d="M185.38,520.38a22.08,22.08,0,0,0,31.24,0l8.67-8.67a17.27,17.27,0,0,0,0-24.42l-5.9-5.9a26,26,0,0,0-36.78,0l-5.79,5.79a17.43,17.43,0,0,0,0,24.64Z" transform="translate(-4 -3)"/><path class="cls-2" d="M331.13,533.28h0a27,27,0,0,0-38.15-.77L273.83,550.9a20.47,20.47,0,0,0-.58,28.94l2.83,2.94a28.29,28.29,0,0,0,40,.8l14.31-13.75A25.84,25.84,0,0,0,331.13,533.28Z" transform="translate(-4 -3)"/><path class="cls-2" d="M322.61,598.61a28.84,28.84,0,0,0,40.78,0l2.48-2.48a26.35,26.35,0,0,0,0-37.26,14.49,14.49,0,0,0-20.48,0l-24.91,24.92a9,9,0,0,0,0,12.69Z" transform="translate(-4 -3)"/><path class="cls-2" d="M268,376c19,11,41-9,41-9l33-32a31.59,31.59,0,0,1,21-8h47s12,0,22,12S558,472,558,472s5,5,16-6,31-31,74-32L610,255s-104,22-139,4-90,4-90,4l-54,21s-25,6-33,25-31,43-31,43S249,365,268,376Z" transform="translate(-4 -3)"/><path class="cls-2" d="M718.76,219.08,704.45,222l-.06-.29L615.68,240l42.59,206.52,29.57-6.1A314.92,314.92,0,0,1,156.26,600.74,313.92,313.92,0,0,1,88.73,500.59c-2.92-6.89-5.56-13.86-8-20.91L10.58,448.29C43.48,621.8,195.92,753,379,753c207.11,0,375-167.89,375-375A373.54,373.54,0,0,0,718.76,219.08Z" transform="translate(-4 -3)"/><path class="cls-1" d="M1258,474.93c0,71.95-56.37,113.93-164.3,113.93H885V169.12h196.68c100.73,0,154.7,42.57,154.7,109.13,0,43.17-21.59,74.95-54,92.34C1227.43,385,1258,420.36,1258,474.93ZM963,230.28V346h110.33c54,0,84.55-19.19,84.55-57.57,0-39-30.58-58.16-84.55-58.16Zm216.47,236.85c0-42-31.78-60.56-90.55-60.56H963V527.7h125.92C1147.68,527.7,1179.46,509.11,1179.46,467.13Z" transform="translate(-4 -3)"/><path class="cls-1" d="M1613.58,491.72H1403.7l-41.37,97.14H1282l188.88-419.74h76.76L1737.1,588.86h-81.55Zm-25.79-61.16-79.15-183.49-78.55,183.49Z" transform="translate(-4 -3)"/><path class="cls-1" d="M2065.09,588.86l-85.75-122.93a146,146,0,0,1-16.19.6h-94.74V588.86h-78V169.12h172.69c110.33,0,178.69,56.36,178.69,149.3,0,63.57-32.38,110.34-89.34,132.52L2149,588.86ZM1959.55,235.08h-91.14V402.37h91.14c68.36,0,103.74-31.18,103.74-83.95S2027.91,235.08,1959.55,235.08Z" transform="translate(-4 -3)"/><path class="cls-1" d="M2515.4,374.19h73.75v167.3c-43.77,35.38-104.93,53.36-164.29,53.36-130.12,0-226.06-90.54-226.06-215.86s95.94-215.87,227.26-215.87c70.15,0,128.92,23.39,168.49,68.36l-49.17,48c-33-33-70.75-48-115.73-48-89.34,0-152.3,60.56-152.3,147.51,0,85.14,63,147.51,151.7,147.51,30,0,59.37-6,86.35-21.59Z" transform="translate(-4 -3)"/><path class="cls-1" d="M2963.91,491.72H2754l-41.37,97.14h-80.35L2821.2,169.12H2898l189.49,419.74h-81.55Zm-25.78-61.16L2859,247.07l-78.56,183.49Z" transform="translate(-4 -3)"/><path class="cls-1" d="M3140.8,169.12h77.95V588.86H3140.8Z" transform="translate(-4 -3)"/><path class="cls-1" d="M3705,169.12V588.86h-64.16L3409.42,304.63V588.86h-77.35V169.12h64.16l231.45,284.22V169.12Z" transform="translate(-4 -3)"/></svg>