<?xml version="1.0" encoding="utf-8"?>
<!-- Generator: Adobe Illustrator 24.0.3, SVG Export Plug-In . SVG Version: 6.00 Build 0)  -->
<svg version="1.1" id="Layer_1" xmlns="http://www.w3.org/2000/svg" xmlns:xlink="http://www.w3.org/1999/xlink" x="0px" y="0px"
	 viewBox="0 0 3701 750" style="enable-background:new 0 0 3701 750;" xml:space="preserve">
<style type="text/css">
	.st0{fill:#3173DB;}
	.st1{fill:#55BB8D;}
</style>
<title>BargainLogo</title>
<path class="st0" d="M541.5,469.5L419.4,341.7c-3.8-4-9-6.2-14.5-6.2h-47.7c-5,0-9.7,1.8-13.4,5.2l-45.3,40.8c0,0-25,11-46-4
	s1-38,1-38s12-15,28-40s49-32,49-32c62-18,52-27,52-27c-15-11-68,8-68,8s-28,10-61,22s-51,1-51,1l-22-13l-80,175c0,0,43,10,57,29
	s22,10,22,10c11-7,16-6,16-6s25-1,30,16s15,11,15,11c10-4,27,0,27,0s11,2,16,15s25,10,25,10s29,0,28,16s22,15,22,15s22,3,16,27
	s12,22,12,22s9-1,19-8s-4-18-4-18s-34-31-45-43s5-5,5-5l60,55c0,0,12,11,26-3s-1-29-1-29s-35-35-45-47s5-6,5-6l55,54c0,0,20,15,36-3
	s0-35,0-35s-57-60-63-70s5-5,5-5l77,79c0,0,16,17,35,0S541.5,469.5,541.5,469.5z"/>
<path class="st0" d="M375,0C167.9,0,0,167.9,0,375c0,9.2,0.3,18.2,1,27.2l63.9,28.6l0,0l24.7,11l86.1-192.5l-73.2-32.7
	c87.6-150.4,280.6-201.4,431-113.8c39.6,23.1,73.7,54.5,100,92.1l63-13C631,73,511.5,0,375,0z"/>
<path class="st1" d="M216,544.7l9.6,10c9,9.3,23.8,9.6,33.1,0.7l16.7-16.1c9.3-8.9,9.6-23.6,0.7-32.9l0,0l0,0
	c-12.1-12.6-32.2-13-44.9-0.9l-14.7,14.1C209.4,526.4,209.2,537.6,216,544.7L216,544.7z"/>
<path class="st1" d="M181.4,517.4c8.6,8.6,22.6,8.6,31.2,0l0,0l8.7-8.7c6.7-6.7,6.7-17.7,0-24.4l-5.9-5.9
	c-10.2-10.2-26.6-10.2-36.8,0l0,0l-5.8,5.8c-6.8,6.8-6.8,17.8,0,24.6L181.4,517.4z"/>
<path class="st1" d="M327.1,530.3L327.1,530.3c-10.3-10.7-27.4-11.1-38.1-0.8l-19.2,18.4c-8.2,7.8-8.4,20.8-0.6,28.9l2.8,2.9
	c10.8,11.3,28.7,11.6,40,0.8l14.3-13.8C336.7,556.9,337,540.6,327.1,530.3L327.1,530.3z"/>
<path class="st1" d="M318.6,595.6c11.3,11.3,29.5,11.3,40.8,0l2.5-2.5c10.3-10.3,10.3-27,0-37.3c-5.7-5.7-14.8-5.7-20.5,0
	l-24.9,24.9c-3.5,3.5-3.5,9.2,0,12.7L318.6,595.6z"/>
<path class="st1" d="M264,373c19,11,41-9,41-9l33-32c5.8-5.2,13.3-8,21-8h47c0,0,12,0,22,12s126,133,126,133s5,5,16-6s31-31,74-32
	l-38-179c0,0-104,22-139,4s-90,4-90,4l-54,21c0,0-25,6-33,25s-31,43-31,43S245,362,264,373z"/>
<path class="st1" d="M714.8,216.1l-14.3,2.9l-0.1-0.3L611.7,237l42.6,206.5l29.6-6.1c-34.4,170.5-200.5,280.9-371,246.6
	c-60.9-12.3-116.8-42.3-160.7-86.2C123.5,569,100.5,535,84.7,497.6c-2.9-6.9-5.6-13.9-8-20.9L6.6,445.3
	C39.5,618.8,191.9,750,375,750c207.1,0,375-167.9,375-375C750.1,320.1,738,265.8,714.8,216.1z"/>
<path class="st0" d="M1254,471.9c0,72-56.4,113.9-164.3,113.9H881V166.1h196.7c100.7,0,154.7,42.6,154.7,109.1
	c0,43.2-21.6,75-54,92.3C1223.4,382,1254,417.4,1254,471.9z M959,227.3V343h110.3c54,0,84.6-19.2,84.6-57.6
	c0-39-30.6-58.2-84.6-58.2L959,227.3z M1175.5,464.1c0-42-31.8-60.6-90.6-60.6H959v121.1h125.9
	C1143.7,524.7,1175.5,506.1,1175.5,464.1L1175.5,464.1z"/>
<path class="st0" d="M1609.6,488.7h-209.9l-41.4,97.1H1278l188.9-419.7h76.8l189.5,419.7h-81.6L1609.6,488.7z M1583.8,427.6
	l-79.2-183.5L1426,427.6H1583.8z"/>
<path class="st0" d="M2061.1,585.9L1975.3,463c-5.4,0.5-10.8,0.7-16.2,0.6h-94.7v122.3h-78V166.1h172.7
	c110.3,0,178.7,56.4,178.7,149.3c0,63.6-32.4,110.3-89.3,132.5l96.6,137.9L2061.1,585.9L2061.1,585.9z M1955.6,232.1h-91.1v167.3
	h91.1c68.4,0,103.7-31.2,103.7-84S2023.9,232.1,1955.6,232.1z"/>
<path class="st0" d="M2511.4,371.2h73.8v167.3c-43.8,35.4-104.9,53.4-164.3,53.4c-130.1,0-226.1-90.5-226.1-215.9
	s95.9-215.9,227.3-215.9c70.1,0,128.9,23.4,168.5,68.4l-49.2,48c-33-33-70.8-48-115.7-48c-89.3,0-152.3,60.6-152.3,147.5
	c0,85.1,63,147.5,151.7,147.5c30,0,59.4-6,86.4-21.6L2511.4,371.2L2511.4,371.2z"/>
<path class="st0" d="M2959.9,488.7H2750l-41.4,97.1h-80.4l188.9-419.7h76.8l189.5,419.7h-81.6L2959.9,488.7z M2934.1,427.6
	L2855,244.1l-78.6,183.5H2934.1z"/>
<path class="st0" d="M3136.8,166.1h77.9v419.7h-77.9V166.1z"/>
<path class="st0" d="M3701,166.1v419.7h-64.2l-231.4-284.2v284.2H3328V166.1h64.2l231.4,284.2V166.1H3701z"/>
</svg>
