<?xml version="1.0" encoding="utf-8"?>
<!-- Generator: Adobe Illustrator 24.0.3, SVG Export Plug-In . SVG Version: 6.00 Build 0)  -->
<svg version="1.1" id="Layer_1" xmlns="http://www.w3.org/2000/svg" xmlns:xlink="http://www.w3.org/1999/xlink" x="0px" y="0px"
	 viewBox="0 0 750 750" style="enable-background:new 0 0 750 750;" xml:space="preserve">
<style type="text/css">
	.st0{fill:#3173DB;}
	.st1{fill:#7E83F7;}
</style>
<title>BargainHandshakeIcon</title>
<path class="st0" d="M541.5,469.5l-128-134h-64l-51,46c0,0-25,11-46-4s1-38,1-38s12-15,28-40s49-32,49-32c62-18,52-27,52-27
	c-15-11-68,8-68,8s-28,10-61,22s-51,1-51,1l-22-13l-80,175c0,0,43,10,57,29s22,10,22,10c11-7,16-6,16-6s25-1,30,16s15,11,15,11
	c10-4,27,0,27,0s11,2,16,15s25,10,25,10s29,0,28,16s22,15,22,15s22,3,16,27s12,22,12,22s9-1,19-8s-4-18-4-18s-34-31-45-43s5-5,5-5
	l60,55c0,0,12,11,26-3s-1-29-1-29s-35-35-45-47s5-6,5-6l55,54c0,0,20,15,36-3s0-35,0-35s-57-60-63-70s5-5,5-5l77,79c0,0,16,17,35,0
	S541.5,469.5,541.5,469.5z"/>
<path class="st0" d="M375,0C167.9,0,0,167.9,0,375c0,9.2,0.3,18.2,1,27.2l63.9,28.6l0,0l24.7,11l86.1-192.5l-73.1-32.7
	c87.6-150.4,280.6-201.4,431-113.8c39.6,23.1,73.7,54.5,100,92.1l63-13C631,73,511.5,0,375,0z"/>
<path class="st1" d="M216,544.7l9.6,10c9,9.3,23.8,9.6,33.1,0.7l16.8-16.1c9.3-8.9,9.6-23.6,0.7-32.9l0,0
	c-12.1-12.6-32.2-13-44.8-0.9l0,0l-14.7,14.1C209.4,526.3,209.2,537.6,216,544.7C216,544.6,216,544.6,216,544.7z"/>
<path class="st1" d="M181.4,517.4c8.6,8.6,22.6,8.6,31.2,0l0,0l8.7-8.7c6.7-6.7,6.7-17.7,0-24.4l-5.9-5.9
	c-10.2-10.2-26.6-10.2-36.8,0l0,0l-5.8,5.8c-6.8,6.8-6.8,17.8,0,24.6L181.4,517.4z"/>
<path class="st1" d="M327.1,530.3L327.1,530.3c-10.3-10.7-27.4-11.1-38.2-0.8l-19.1,18.4c-8.2,7.8-8.4,20.8-0.6,28.9l2.8,2.9
	c10.8,11.3,28.7,11.6,40,0.8l14.3-13.7C336.7,556.9,337,540.6,327.1,530.3z"/>
<path class="st1" d="M318.6,595.6c11.3,11.3,29.5,11.3,40.8,0l2.5-2.5c10.3-10.3,10.3-26.9,0-37.2l0,0c-5.6-5.7-14.8-5.7-20.5,0l0,0
	l-24.9,24.9c-3.5,3.5-3.5,9.2,0,12.7L318.6,595.6z"/>
<path class="st1" d="M264,373c19,11,41-9,41-9l33-32c5.8-5.2,13.3-8,21-8h47c0,0,12,0,22,12s126,133,126,133s5,5,16-6s31-31,74-32
	l-38-179c0,0-104,22-139,4s-90,4-90,4l-54,21c0,0-25,6-33,25s-31,43-31,43S245,362,264,373z"/>
<path class="st1" d="M714.8,216.1l-14.3,2.9l-0.1-0.3L611.7,237l42.6,206.5l29.6-6.1C654.2,584.5,525,690.1,375,690
	c-126.6-0.1-240.9-75.8-290.3-192.4c-2.9-6.9-5.6-13.9-8-20.9L6.6,445.3C39.5,618.8,191.9,750,375,750c207.1,0,375-167.9,375-375
	C750.1,320.1,738,265.8,714.8,216.1z"/>
</svg>
